<svg width="36" height="35" viewBox="0 0 36 35" fill="none" xmlns="http://www.w3.org/2000/svg">
<path d="M18.0509 6.34752C15.5117 6.34318 13.0485 7.21387 11.076 8.813H13.1199C13.4469 8.813 13.7604 8.94288 13.9916 9.17406C14.2228 9.40524 14.3527 9.7188 14.3527 10.0457C14.3527 10.3727 14.2228 10.6862 13.9916 10.9174C13.7604 11.1486 13.4469 11.2785 13.1199 11.2785H8.18895C8.0257 11.2785 7.86408 11.2461 7.71347 11.1831C7.56285 11.1202 7.42624 11.0279 7.31155 10.9118C7.19687 10.7956 7.1064 10.6578 7.0454 10.5064C6.9844 10.355 6.95408 10.1929 6.95621 10.0297V5.11477C6.95621 4.78783 7.08608 4.47428 7.31727 4.24309C7.54845 4.01191 7.862 3.88203 8.18895 3.88203C8.51589 3.88203 8.82944 4.01191 9.06063 4.24309C9.29181 4.47428 9.42169 4.78783 9.42169 5.11477V6.98114C11.8489 4.97385 14.9012 3.87765 18.0509 3.88203C25.5398 3.88203 31.611 9.95328 31.611 17.4422C31.611 24.9311 25.5398 31.0023 18.0509 31.0023C10.562 31.0023 4.49072 24.9311 4.49072 17.4422C4.49072 16.9861 4.51291 16.5345 4.55729 16.0874C4.57131 15.9248 4.6175 15.7665 4.69317 15.6219C4.76884 15.4772 4.8725 15.349 4.99811 15.2447C5.12373 15.1405 5.2688 15.0622 5.42492 15.0144C5.58103 14.9667 5.74508 14.9504 5.90753 14.9666C6.06998 14.9827 6.22761 15.031 6.37125 15.1086C6.5149 15.1862 6.6417 15.2915 6.74431 15.4185C6.84692 15.5455 6.92328 15.6916 6.96897 15.8483C7.01465 16.005 7.02875 16.1693 7.01045 16.3315C6.97429 16.6964 6.95621 17.0666 6.95621 17.4422C6.95621 19.6365 7.6069 21.7816 8.826 23.6061C10.0451 25.4306 11.7778 26.8526 13.8051 27.6923C15.8324 28.5321 18.0632 28.7518 20.2153 28.3237C22.3675 27.8956 24.3444 26.8389 25.896 25.2873C27.4476 23.7357 28.5043 21.7588 28.9324 19.6067C29.3605 17.4545 29.1408 15.2237 28.301 13.1964C27.4613 11.1692 26.0393 9.4364 24.2148 8.21731C22.3902 6.99821 20.2452 6.34752 18.0509 6.34752ZM19.2836 10.0457C19.2836 9.7188 19.1537 9.40524 18.9226 9.17406C18.6914 8.94288 18.3778 8.813 18.0509 8.813C17.7239 8.813 17.4104 8.94288 17.1792 9.17406C16.948 9.40524 16.8181 9.7188 16.8181 10.0457V17.4422C16.8181 17.7691 16.948 18.0827 17.1792 18.3139C17.4104 18.5451 17.7239 18.6749 18.0509 18.6749H22.9818C23.3088 18.6749 23.6223 18.5451 23.8535 18.3139C24.0847 18.0827 24.2146 17.7691 24.2146 17.4422C24.2146 17.1152 24.0847 16.8017 23.8535 16.5705C23.6223 16.3393 23.3088 16.2094 22.9818 16.2094H19.2836V10.0457Z" fill="white"/>
</svg>
