<svg width="34" height="34" viewBox="0 0 34 34" fill="none" xmlns="http://www.w3.org/2000/svg">
<path d="M9.2085 25.5C11.5432 28.1081 14.64 29.75 18.4168 29.75C20.0912 29.75 21.7491 29.4202 23.296 28.7795C24.8429 28.1387 26.2485 27.1996 27.4324 26.0156C28.6164 24.8317 29.5555 23.4261 30.1963 21.8792C30.837 20.3323 31.1668 18.6744 31.1668 17C31.1668 15.3256 30.837 13.6677 30.1963 12.1208C29.5555 10.5739 28.6164 9.16834 27.4324 7.98439C26.2485 6.80044 24.8429 5.86128 23.296 5.22053C21.7491 4.57979 20.0912 4.25 18.4168 4.25C14.64 4.25 11.5432 5.89192 9.2085 8.5M2.8335 17L15.5835 17M2.8335 17C2.8335 17.9917 5.65833 19.8447 6.37516 20.5417M2.8335 17C2.8335 16.0083 5.65833 14.1553 6.37516 13.4583" stroke="white" stroke-width="2" stroke-linecap="round" stroke-linejoin="round"/>
</svg>
