<svg width="36" height="36" viewBox="0 0 36 36" fill="none" xmlns="http://www.w3.org/2000/svg">
<g clip-path="url(#clip0_74_27)">
<path fill-rule="evenodd" clip-rule="evenodd" d="M7.80304 9.73722V4.73229C7.80304 4.30318 7.9735 3.89164 8.27693 3.58821C8.58036 3.28478 8.9919 3.11432 9.42101 3.11432C9.85013 3.11432 10.2617 3.28478 10.5651 3.58821C10.8685 3.89164 11.039 4.30318 11.039 4.73229V9.73722C13.0116 10.1139 14.7912 11.1666 16.0712 12.7142C17.3512 14.2617 18.0515 16.2071 18.0515 18.2154C18.0515 20.2237 17.3512 22.1691 16.0712 23.7167C14.7912 25.2642 13.0116 26.3169 11.039 26.6936V31.6985C11.039 32.1276 10.8685 32.5392 10.5651 32.8426C10.2617 33.146 9.85013 33.3165 9.42101 33.3165C8.9919 33.3165 8.58036 33.146 8.27693 32.8426C7.9735 32.5392 7.80304 32.1276 7.80304 31.6985V26.6936C5.83039 26.3169 4.05082 25.2642 2.77083 23.7167C1.49083 22.1691 0.790527 20.2237 0.790527 18.2154C0.790527 16.2071 1.49083 14.2617 2.77083 12.7142C4.05082 11.1666 5.83039 10.1139 7.80304 9.73722ZM9.42101 23.6086C10.8514 23.6086 12.2232 23.0404 13.2346 22.029C14.246 21.0176 14.8143 19.6458 14.8143 18.2154C14.8143 16.785 14.246 15.4132 13.2346 14.4018C12.2232 13.3904 10.8514 12.8222 9.42101 12.8222C7.99063 12.8222 6.61884 13.3904 5.60741 14.4018C4.59598 15.4132 4.02777 16.785 4.02777 18.2154C4.02777 19.6458 4.59598 21.0176 5.60741 22.029C6.61884 23.0404 7.99063 23.6086 9.42101 23.6086ZM21.8255 9.58621C21.3964 9.58621 20.9848 9.75668 20.6814 10.0601C20.378 10.3635 20.2075 10.7751 20.2075 11.2042C20.2075 11.6333 20.378 12.0448 20.6814 12.3483C20.9848 12.6517 21.3964 12.8222 21.8255 12.8222H33.6906C34.1197 12.8222 34.5313 12.6517 34.8347 12.3483C35.1381 12.0448 35.3086 11.6333 35.3086 11.2042C35.3086 10.7751 35.1381 10.3635 34.8347 10.0601C34.5313 9.75668 34.1197 9.58621 33.6906 9.58621H21.8255ZM21.8255 16.5974C21.3964 16.5974 20.9848 16.7679 20.6814 17.0713C20.378 17.3748 20.2075 17.7863 20.2075 18.2154C20.2075 18.6445 20.378 19.0561 20.6814 19.3595C20.9848 19.6629 21.3964 19.8334 21.8255 19.8334H33.6906C34.1197 19.8334 34.5313 19.6629 34.8347 19.3595C35.1381 19.0561 35.3086 18.6445 35.3086 18.2154C35.3086 17.7863 35.1381 17.3748 34.8347 17.0713C34.5313 16.7679 34.1197 16.5974 33.6906 16.5974H21.8255ZM20.2075 25.2266C20.2075 24.7975 20.378 24.386 20.6814 24.0825C20.9848 23.7791 21.3964 23.6086 21.8255 23.6086H33.6906C34.1197 23.6086 34.5313 23.7791 34.8347 24.0825C35.1381 24.386 35.3086 24.7975 35.3086 25.2266C35.3086 25.6557 35.1381 26.0673 34.8347 26.3707C34.5313 26.6741 34.1197 26.8446 33.6906 26.8446H21.8255C21.3964 26.8446 20.9848 26.6741 20.6814 26.3707C20.378 26.0673 20.2075 25.6557 20.2075 25.2266Z" fill="white"/>
</g>
<defs>
<clipPath id="clip0_74_27">
<rect width="34.5168" height="34.5168" fill="white" transform="translate(0.792969 0.95697)"/>
</clipPath>
</defs>
</svg>
