<svg width="40" height="40" viewBox="0 0 40 40" fill="none" xmlns="http://www.w3.org/2000/svg">
<path d="M31.6833 21.8333C36.105 17.6 36.105 10.74 31.6833 6.50665C27.2617 2.27332 20.095 2.27498 15.6733 6.50665M13.1967 29.6783L26.3467 17.09C26.7204 16.7388 27.0183 16.3149 27.2219 15.8442C27.4255 15.3735 27.5305 14.8661 27.5305 14.3533C27.5305 13.8405 27.4255 13.3331 27.2219 12.8624C27.0183 12.3918 26.7204 11.9678 26.3467 11.6167C25.5729 10.8888 24.5506 10.4835 23.4883 10.4835C22.426 10.4835 21.4038 10.8888 20.63 11.6167L7.57333 24.1133C6.86295 24.7804 6.29679 25.586 5.90977 26.4803C5.52275 27.3747 5.32308 28.3388 5.32308 29.3133C5.32308 30.2878 5.52275 31.252 5.90977 32.1463C6.29679 33.0407 6.86295 33.8462 7.57333 34.5133C10.5733 37.385 15.4367 37.385 18.4367 34.5133L25.06 28.1733M5 16.7233L10.3367 11.6167" stroke="white" stroke-width="2" stroke-linecap="round"/>
</svg>
