<svg width="34" height="34" viewBox="0 0 34 34" fill="none" xmlns="http://www.w3.org/2000/svg">
<path d="M17 21.25C19.3472 21.25 21.25 19.3472 21.25 17C21.25 14.6528 19.3472 12.75 17 12.75C14.6528 12.75 12.75 14.6528 12.75 17C12.75 19.3472 14.6528 21.25 17 21.25Z" stroke="white" stroke-width="1.5"/>
<path d="M19.5006 3.04871C18.9807 2.83337 18.3205 2.83337 17.0002 2.83337C15.6798 2.83337 15.0197 2.83337 14.4997 3.04871C14.1557 3.1911 13.8432 3.39989 13.5799 3.66315C13.3167 3.92641 13.1079 4.23896 12.9655 4.58296C12.8352 4.89887 12.7827 5.26862 12.7629 5.80554C12.7537 6.19361 12.6462 6.57299 12.4504 6.90821C12.2547 7.24343 11.9772 7.52352 11.6437 7.72229C11.3049 7.9118 10.9235 8.01224 10.5352 8.01423C10.147 8.01621 9.76459 7.91966 9.42382 7.73362C8.94782 7.48146 8.60357 7.34262 8.26215 7.29729C7.51744 7.19936 6.76431 7.40114 6.16832 7.85829C5.72348 8.20254 5.39198 8.77346 4.73182 9.91671C4.07165 11.06 3.74015 11.6309 3.6679 12.1905C3.61922 12.5594 3.6437 12.9344 3.73996 13.2939C3.83622 13.6534 4.00236 13.9904 4.2289 14.2857C4.43857 14.5577 4.73182 14.7858 5.18657 15.072C5.85665 15.4927 6.28732 16.2095 6.28732 17C6.28732 17.7905 5.85665 18.5074 5.18657 18.9267C4.73182 19.2143 4.43715 19.4424 4.2289 19.7144C4.00236 20.0097 3.83622 20.3467 3.73996 20.7062C3.6437 21.0657 3.61922 21.4407 3.6679 21.8096C3.74157 22.3678 4.07165 22.9401 4.7304 24.0834C5.39198 25.2266 5.72207 25.7975 6.16832 26.1418C6.4636 26.3683 6.80062 26.5345 7.16013 26.6307C7.51964 26.727 7.89459 26.7515 8.26357 26.7028C8.60357 26.6575 8.94782 26.5186 9.42382 26.2665C9.76459 26.0804 10.147 25.9839 10.5352 25.9859C10.9235 25.9878 11.3049 26.0883 11.6437 26.2778C12.328 26.6745 12.7346 27.404 12.7629 28.1945C12.7827 28.7329 12.8337 29.1012 12.9655 29.4171C13.1079 29.7611 13.3167 30.0737 13.5799 30.3369C13.8432 30.6002 14.1557 30.809 14.4997 30.9514C15.0197 31.1667 15.6798 31.1667 17.0002 31.1667C18.3205 31.1667 18.9807 31.1667 19.5006 30.9514C19.8446 30.809 20.1571 30.6002 20.4204 30.3369C20.6836 30.0737 20.8924 29.7611 21.0348 29.4171C21.1651 29.1012 21.2176 28.7329 21.2374 28.1945C21.2657 27.404 21.6723 26.673 22.3566 26.2778C22.6954 26.0883 23.0768 25.9878 23.4651 25.9859C23.8533 25.9839 24.2357 26.0804 24.5765 26.2665C25.0525 26.5186 25.3967 26.6575 25.7367 26.7028C26.1057 26.7515 26.4807 26.727 26.8402 26.6307C27.1997 26.5345 27.5367 26.3683 27.832 26.1418C28.2782 25.799 28.6083 25.2266 29.2685 24.0834C29.9287 22.9401 30.2601 22.3692 30.3324 21.8096C30.3811 21.4407 30.3566 21.0657 30.2603 20.7062C30.1641 20.3467 29.9979 20.0097 29.7714 19.7144C29.5617 19.4424 29.2685 19.2143 28.8137 18.9281C28.4821 18.7261 28.2072 18.4433 28.0147 18.106C27.8222 17.7688 27.7184 17.3883 27.713 17C27.713 16.2095 28.1437 15.4927 28.8137 15.0734C29.2685 14.7858 29.5631 14.5577 29.7714 14.2857C29.9979 13.9904 30.1641 13.6534 30.2603 13.2939C30.3566 12.9344 30.3811 12.5594 30.3324 12.1905C30.2587 11.6323 29.9286 11.06 29.2699 9.91671C28.6083 8.77346 28.2782 8.20254 27.832 7.85829C27.5367 7.63175 27.1997 7.46561 26.8402 7.36935C26.4807 7.27309 26.1057 7.24861 25.7367 7.29729C25.3967 7.34262 25.0525 7.48146 24.5751 7.73362C24.2345 7.91941 23.8523 8.01582 23.4644 8.01384C23.0764 8.01185 22.6953 7.91155 22.3566 7.72229C22.0231 7.52352 21.7456 7.24343 21.5499 6.90821C21.3541 6.57299 21.2466 6.19361 21.2374 5.80554C21.2176 5.26721 21.1666 4.89887 21.0348 4.58296C20.8924 4.23896 20.6836 3.92641 20.4204 3.66315C20.1571 3.39989 19.8446 3.1911 19.5006 3.04871Z" stroke="white" stroke-width="1.5"/>
</svg>
