<svg width="38" height="35" viewBox="0 0 38 35" fill="none" xmlns="http://www.w3.org/2000/svg">
<g filter="url(#filter0_d_74_24)">
<path d="M23.1358 10.4267C24.5251 10.4267 25.6526 11.5543 25.6526 12.9436V19.7736C25.6526 21.4904 24.9706 23.1369 23.7566 24.3509C22.5426 25.5649 20.8961 26.2469 19.1793 26.2469C17.4624 26.2469 15.8159 25.5649 14.6019 24.3509C13.3879 23.1369 12.7059 21.4904 12.7059 19.7736V12.9436C12.7059 11.5543 13.832 10.4267 15.2228 10.4267H23.1358ZM23.1358 12.584H15.2228C15.1274 12.584 15.036 12.6219 14.9685 12.6893C14.9011 12.7567 14.8632 12.8482 14.8632 12.9436V19.7736C14.8632 20.9182 15.318 22.016 16.1274 22.8255C16.9368 23.6349 18.0346 24.0896 19.1793 24.0896C20.324 24.0896 21.4218 23.6349 22.2312 22.8255C23.0406 22.016 23.4953 20.9182 23.4953 19.7736V12.9436C23.4953 12.8482 23.4574 12.7567 23.39 12.6893C23.3226 12.6219 23.2311 12.584 23.1358 12.584ZM7.30982 10.4267H12.1724C11.6651 11.0396 11.3553 11.7917 11.2836 12.584H7.30982C7.21446 12.584 7.12301 12.6219 7.05558 12.6893C6.98815 12.7567 6.95027 12.8482 6.95027 12.9436V17.6163C6.9499 18.1598 7.07278 18.6964 7.30967 19.1856C7.54655 19.6748 7.89128 20.104 8.31792 20.4408C8.74457 20.7776 9.24202 21.0133 9.77287 21.1301C10.3037 21.247 10.8542 21.2419 11.3828 21.1154C11.505 21.8402 11.728 22.532 12.0343 23.1749C11.5587 23.3043 11.0626 23.3695 10.5458 23.3705C9.79017 23.3705 9.04199 23.2216 8.34393 22.9324C7.64588 22.6433 7.01163 22.2194 6.47741 21.685C5.9432 21.1507 5.51948 20.5163 5.23046 19.8182C4.94144 19.1201 4.79278 18.3718 4.79297 17.6163V12.9436C4.79297 11.5543 5.92052 10.4267 7.30982 10.4267ZM26.1862 10.4267H31.0401C32.4294 10.4267 33.5569 11.5543 33.5569 12.9436V17.6177C33.5571 18.4995 33.3546 19.3696 32.965 20.1607C32.5753 20.9519 32.009 21.6428 31.3098 22.1802C30.6107 22.7176 29.7973 23.087 28.9326 23.26C28.0678 23.433 27.1749 23.4048 26.3228 23.1778C26.6306 22.5335 26.8535 21.8417 26.9772 21.1168C27.2428 21.1801 27.5184 21.2122 27.8041 21.2132C28.7577 21.2132 29.6723 20.8344 30.3465 20.1601C31.0208 19.4858 31.3996 18.5713 31.3996 17.6177V12.9436C31.3996 12.8482 31.3618 12.7567 31.2943 12.6893C31.2269 12.6219 31.1355 12.584 31.0401 12.584H27.075C27.0033 11.7917 26.6934 11.0396 26.1862 10.4267ZM19.175 0.359314C20.3193 0.359314 21.4167 0.813886 22.2258 1.62303C23.035 2.43217 23.4895 3.52961 23.4895 4.67391C23.4895 5.81821 23.035 6.91565 22.2258 7.72479C21.4167 8.53393 20.3193 8.98851 19.175 8.98851C18.0307 8.98851 16.9332 8.53393 16.1241 7.72479C15.3149 6.91565 14.8604 5.81821 14.8604 4.67391C14.8604 3.52961 15.3149 2.43217 16.1241 1.62303C16.9332 0.813886 18.0307 0.359314 19.175 0.359314ZM28.5232 1.79751C29.4768 1.79751 30.3914 2.17632 31.0656 2.85061C31.7399 3.5249 32.1187 4.43942 32.1187 5.39301C32.1187 6.34659 31.7399 7.26112 31.0656 7.93541C30.3914 8.6097 29.4768 8.98851 28.5232 8.98851C27.5697 8.98851 26.6551 8.6097 25.9808 7.93541C25.3066 7.26112 24.9277 6.34659 24.9277 5.39301C24.9277 4.43942 25.3066 3.5249 25.9808 2.85061C26.6551 2.17632 27.5697 1.79751 28.5232 1.79751ZM9.82666 1.79751C10.7802 1.79751 11.6948 2.17632 12.3691 2.85061C13.0434 3.5249 13.4222 4.43942 13.4222 5.39301C13.4222 6.34659 13.0434 7.26112 12.3691 7.93541C11.6948 8.6097 10.7802 8.98851 9.82666 8.98851C8.87308 8.98851 7.95855 8.6097 7.28426 7.93541C6.60998 7.26112 6.23117 6.34659 6.23117 5.39301C6.23117 4.43942 6.60998 3.5249 7.28426 2.85061C7.95855 2.17632 8.87308 1.79751 9.82666 1.79751ZM19.175 2.51661C18.6028 2.51661 18.0541 2.7439 17.6495 3.14847C17.2449 3.55304 17.0177 4.10176 17.0177 4.67391C17.0177 5.24606 17.2449 5.79478 17.6495 6.19935C18.0541 6.60392 18.6028 6.83121 19.175 6.83121C19.7471 6.83121 20.2958 6.60392 20.7004 6.19935C21.105 5.79478 21.3323 5.24606 21.3323 4.67391C21.3323 4.10176 21.105 3.55304 20.7004 3.14847C20.2958 2.7439 19.7471 2.51661 19.175 2.51661ZM28.5232 3.95481C28.1418 3.95481 27.776 4.10633 27.5063 4.37605C27.2366 4.64576 27.085 5.01157 27.085 5.39301C27.085 5.77444 27.2366 6.14025 27.5063 6.40997C27.776 6.67968 28.1418 6.83121 28.5232 6.83121C28.9047 6.83121 29.2705 6.67968 29.5402 6.40997C29.8099 6.14025 29.9614 5.77444 29.9614 5.39301C29.9614 5.01157 29.8099 4.64576 29.5402 4.37605C29.2705 4.10633 28.9047 3.95481 28.5232 3.95481ZM9.82666 3.95481C9.44523 3.95481 9.07942 4.10633 8.8097 4.37605C8.53999 4.64576 8.38847 5.01157 8.38847 5.39301C8.38847 5.77444 8.53999 6.14025 8.8097 6.40997C9.07942 6.67968 9.44523 6.83121 9.82666 6.83121C10.2081 6.83121 10.5739 6.67968 10.8436 6.40997C11.1133 6.14025 11.2649 5.77444 11.2649 5.39301C11.2649 5.01157 11.1133 4.64576 10.8436 4.37605C10.5739 4.10633 10.2081 3.95481 9.82666 3.95481Z" fill="white"/>
</g>
<defs>
<filter id="filter0_d_74_24" x="0.792969" y="0.359314" width="36.7642" height="33.8876" filterUnits="userSpaceOnUse" color-interpolation-filters="sRGB">
<feFlood flood-opacity="0" result="BackgroundImageFix"/>
<feColorMatrix in="SourceAlpha" type="matrix" values="0 0 0 0 0 0 0 0 0 0 0 0 0 0 0 0 0 0 127 0" result="hardAlpha"/>
<feOffset dy="4"/>
<feGaussianBlur stdDeviation="2"/>
<feComposite in2="hardAlpha" operator="out"/>
<feColorMatrix type="matrix" values="0 0 0 0 0 0 0 0 0 0 0 0 0 0 0 0 0 0 0.25 0"/>
<feBlend mode="normal" in2="BackgroundImageFix" result="effect1_dropShadow_74_24"/>
<feBlend mode="normal" in="SourceGraphic" in2="effect1_dropShadow_74_24" result="shape"/>
</filter>
</defs>
</svg>
