<svg width="31" height="31" viewBox="0 0 31 31" fill="none" xmlns="http://www.w3.org/2000/svg">
<path d="M18.0514 23.8965C18.0514 25.91 18.0514 26.9167 18.444 27.6861C18.7886 28.3623 19.3384 28.912 20.0145 29.2567C20.7839 29.6493 21.7907 29.6493 23.8041 29.6493C25.8176 29.6493 26.8244 29.6493 27.5938 29.2567C28.2699 28.912 28.8197 28.3623 29.1643 27.6861C29.5569 26.9167 29.5569 25.91 29.5569 23.8965C29.5569 21.883 29.5569 20.8763 29.1643 20.1068C28.8197 19.4307 28.2699 18.881 27.5938 18.5363C26.8244 18.1437 25.8176 18.1437 23.8041 18.1437M18.0514 23.8965C18.0514 21.883 18.0514 20.8763 18.444 20.1068C18.7886 19.4307 19.3384 18.881 20.0145 18.5363C20.7839 18.1437 21.7907 18.1437 23.8041 18.1437M18.0514 23.8965C18.0514 25.91 18.0514 26.9167 17.6587 27.6861C17.3141 28.3623 16.7643 28.912 16.0882 29.2567C15.3188 29.6493 14.312 29.6493 12.2986 29.6493C10.2851 29.6493 9.27834 29.6493 8.5089 29.2567C7.83224 28.9123 7.28197 28.3625 6.93695 27.6861C6.54576 26.9167 6.54576 25.91 6.54576 23.8965C6.54576 21.883 6.54576 20.8763 6.93695 20.1068C7.28197 19.4305 7.83224 18.8807 8.5089 18.5363C9.27834 18.1437 10.2851 18.1437 12.2986 18.1437C14.312 18.1437 15.3188 18.1437 16.0882 18.5363C16.7643 18.881 17.3141 19.4307 17.6587 20.1068C18.0514 20.8763 18.0514 21.883 18.0514 23.8965ZM23.8041 18.1437C25.8176 18.1437 26.8244 18.1437 27.5938 17.7511C28.2699 17.4064 28.8197 16.8567 29.1643 16.1806C29.5569 15.4111 29.5569 14.4044 29.5569 12.3909C29.5569 10.3774 29.5569 9.37069 29.1643 8.60125C28.8199 7.92459 28.2701 7.37432 27.5938 7.0293C26.8244 6.63811 25.8176 6.63811 23.8041 6.63811C21.7907 6.63811 20.7839 6.63811 20.0145 7.0293C19.3381 7.37432 18.7884 7.92459 18.444 8.60125C18.0514 9.37069 18.0514 10.3774 18.0514 12.3909C18.0514 14.4044 18.0514 15.4111 18.444 16.1806C18.7886 16.8567 19.3384 17.4064 20.0145 17.7511C20.7839 18.1437 21.7907 18.1437 23.8041 18.1437ZM12.2986 6.63811C12.2986 8.65159 12.2986 9.65833 11.9074 10.4278C11.5626 11.1046 11.0123 11.6549 10.3354 11.9997C9.56598 12.3909 8.55924 12.3909 6.54576 12.3909C4.53228 12.3909 3.52555 12.3909 2.75611 11.9997C2.07923 11.6549 1.52893 11.1046 1.18416 10.4278C0.792969 9.65833 0.792969 8.65159 0.792969 6.63811C0.792969 4.62463 0.792969 3.61789 1.18416 2.84846C1.52893 2.17157 2.07923 1.62128 2.75611 1.27651C3.52555 0.885315 4.53228 0.885315 6.54576 0.885315C8.55924 0.885315 9.56598 0.885315 10.3354 1.27651C11.0123 1.62128 11.5626 2.17157 11.9074 2.84846C12.2986 3.61789 12.2986 4.62463 12.2986 6.63811Z" stroke="white" stroke-width="1.47929" stroke-linecap="round" stroke-linejoin="round"/>
</svg>
